<?xml version="1.0" encoding="iso-8859-1"?>
<!-- Uploaded to: SVG Repo, www.svgrepo.com, Generator: SVG Repo Mixer Tools -->
<svg height="800px" width="800px" version="1.1" id="Layer_1" xmlns="http://www.w3.org/2000/svg" xmlns:xlink="http://www.w3.org/1999/xlink" 
	 viewBox="0 0 511.848 511.848" xml:space="preserve">
<g transform="translate(0 1)">
	<path style="fill:#FD9808;" d="M458.178,495.542H213.855l-17.067-44.912c-4.491-13.474,4.491-26.947,18.863-26.947h240.73
		c14.372,0,23.354,14.372,18.863,26.947L458.178,495.542z"/>
	<path style="fill:#FFFFFF;" d="M271.343,495.542H27.02L9.953,450.629c-4.491-13.474,4.491-26.947,18.863-26.947h240.73
		c14.372,0,23.354,14.372,18.863,26.947L271.343,495.542z"/>
	<path style="fill:#FFDD09;" d="M431.231,495.542H53.968l-17.067-44.912c-4.491-13.474,4.491-26.947,18.863-26.947h372.772
		c14.372,0,23.354,14.372,18.863,26.947L431.231,495.542z"/>
	<path style="fill:#1CD759;" d="M19.834,178.461c2.695-3.593,6.288-5.389,9.881-6.288c1.796-0.898,3.593-1.797,5.389-4.491
		c1.796-3.593,3.593-6.288,8.084-8.084c6.288-2.695,14.372-1.796,19.761,3.593c4.491,4.491,6.288,9.881,5.389,15.27
		c-0.898,6.288,0,11.677,4.491,17.067l26.947,32.337c-15.27,3.593-21.558,11.677-23.354,19.761l-27.846-33.235
		c-3.593-4.491-9.881-7.186-15.27-7.186s-10.779-2.695-13.474-8.084C15.343,192.833,15.343,184.749,19.834,178.461"/>
	<path style="fill:#FFDD09;" d="M30.613,376.973c3.593,17.965,13.474,33.235,27.846,46.709h335.046
		c5.389-8.084,8.982-17.965,8.982-29.642c0-6.288-0.898-11.677-1.796-17.067c-0.898-6.288-1.797-11.677-0.898-17.965l-59.284-59.284
		c11.677,17.965,27.846,37.726,26.049,58.386c-2.695,23.354-26.049,41.319-58.386,8.084c-27.846-28.744-40.421-52.996-44.912-71.86
		c-10.779-3.593-17.965-12.575-22.456-16.168c-40.421-35.032-78.147-40.421-108.688-30.54c-4.491-3.593-8.084-7.186-11.677-11.677
		c-4.491-5.389-9.881-8.084-16.168-8.084c-43.116,7.186-25.151,42.218-25.151,42.218c2.695,2.695,4.491,5.389,6.288,8.982
		C59.357,306.012,24.325,347.331,30.613,376.973"/>
	<path style="fill:#FD9808;" d="M119.539,78.756c88.028-88.028,229.951-88.028,317.979,0s88.028,229.951,0,317.979L119.539,78.756z"
		/>
	<path style="fill:#FFDD09;" d="M119.539,76.061c79.944-79.944,213.782-77.249,297.319,7.186s87.13,217.375,7.186,297.319
		L119.539,76.061z"/>
	<g>
		<path style="fill:#FD9808;" d="M104.269,226.068c6.288,0.898,11.677,3.593,16.168,8.084
			c16.168,19.761,39.523,32.337,63.775,37.726c13.474,2.695,26.049,9.881,35.93,21.558c20.66,25.151,17.965,63.775-6.288,86.232
			c-26.947,24.253-68.267,20.66-90.723-6.288c-8.084-9.881-13.474-22.456-14.372-35.032c-1.796-26.049-13.474-50.302-29.642-70.961
			C79.118,269.184,61.153,234.152,104.269,226.068"/>
		<path style="fill:#FD9808;" d="M279.427,238.643c-22.456,22.456-33.235,62.877,28.744,127.551
			c32.337,33.235,55.691,15.27,58.386-8.084c1.796-20.66-13.474-40.421-26.049-58.386L279.427,238.643z"/>
	</g>
	<path d="M437.518,405.717c-2.695,0-4.491-0.898-6.288-2.695L113.252,85.942c-1.796-1.796-2.695-3.593-2.695-6.288
		c0-2.695,0.898-4.491,2.695-6.288c90.723-90.723,238.933-90.723,330.554,0c90.723,90.723,90.723,238.933,0,330.554
		C442.01,404.819,439.315,405.717,437.518,405.717z M133.013,79.654l304.505,304.505c78.147-84.435,75.453-216.477-6.288-298.218
		C348.592,3.303,217.448,1.507,133.013,79.654z"/>
	<path d="M458.178,504.524H27.02c-3.593,0-7.186-2.695-8.084-5.389L1.869,454.222c-3.593-8.982-1.796-18.863,3.593-26.947
		c5.389-8.084,14.372-12.575,23.354-12.575h426.667c9.881,0,18.863,4.491,24.253,12.575c5.389,8.084,6.288,17.965,3.593,26.947
		l-17.067,44.912C465.364,501.829,461.771,504.524,458.178,504.524z M33.308,486.559H451.89l14.372-38.625
		c0.898-3.593,0.898-7.186-0.898-9.881c-1.797-2.695-5.389-4.491-8.982-4.491H28.817c-3.593,0-7.186,1.796-8.982,4.491
		s-2.695,7.186-0.898,9.881L33.308,486.559z"/>
	<path d="M171.638,405.717c-1.796,0-3.593,0-5.389,0c-19.761-1.797-37.726-10.779-50.302-26.049
		c-8.982-11.677-15.27-25.151-16.168-39.523c-1.796-23.354-11.677-45.811-27.846-65.572l-0.898-1.796
		c0-0.898-8.982-18.863-0.898-35.032c5.389-10.779,16.168-17.965,33.235-20.66h0.898h0.898c8.982,0.898,16.168,5.389,21.558,11.677
		c14.372,17.965,35.032,29.642,59.284,35.032c16.168,3.593,30.54,12.575,40.421,25.151c23.354,28.744,20.66,73.656-7.186,98.807
		C205.771,399.429,189.603,405.717,171.638,405.717z M86.304,263.794c17.965,22.456,28.744,48.505,30.54,74.554
		c0.898,10.779,5.389,21.558,11.677,29.642c9.881,11.677,22.456,17.965,37.726,19.761c15.27,0.898,28.744-3.593,40.421-13.474
		c20.66-18.863,23.354-52.098,5.389-73.656c-8.084-9.881-18.863-16.168-30.54-18.863c-27.846-5.389-52.098-20.66-69.165-40.421
		c-1.796-2.695-5.389-4.491-8.982-5.389c-9.881,1.796-16.168,5.389-18.863,10.779C82.711,252.117,85.406,260.201,86.304,263.794z"/>
	<path d="M80.915,268.286l-39.523-47.607c-2.695-3.593-7.186-3.593-8.982-3.593c-8.982,0-16.168-4.491-20.66-11.677
		c-6.288-9.881-5.389-22.456,1.796-31.439l0,0c3.593-4.491,8.084-7.186,13.474-8.982c2.695-5.389,6.288-8.982,11.677-11.677
		c9.881-5.389,22.456-3.593,30.54,4.491c6.288,6.288,8.982,14.372,8.084,22.456c0,2.695-0.898,6.288,1.796,9.881l35.93,44.014
		l-13.474,3.593c-14.372,3.593-16.168,10.779-16.168,13.474L80.915,268.286z M27.02,184.749c-2.695,2.695-2.695,7.186-0.898,9.881
		c1.796,2.695,3.593,3.593,6.288,3.593c8.982,0,17.067,4.491,22.456,10.779l18.863,22.456c2.695-2.695,5.389-5.389,9.881-8.084
		l-18.863-23.354c-5.389-6.288-7.186-14.372-6.288-23.354c0-2.695-0.898-5.389-2.695-7.186c-2.695-2.695-6.288-2.695-9.881-1.797
		c-0.898,1.797-1.797,2.695-2.695,4.491c-1.796,4.491-6.288,8.084-11.677,8.982C29.715,182.054,28.817,182.952,27.02,184.749
		L27.02,184.749z"/>
	<path d="M341.406,393.142c-9.881,0-23.354-4.491-39.523-20.66c-67.368-70.063-52.996-114.975-28.744-140.126l6.288-6.288
		l69.165,69.165l3.593,4.491c12.575,17.965,26.049,37.726,24.253,59.284c-1.796,15.27-10.779,27.846-23.354,32.337
		C348.592,392.243,344.999,393.142,341.406,393.142z M279.427,252.117c-19.761,26.947-8.084,63.775,35.032,107.789
		c11.677,12.575,23.354,17.965,31.439,15.27c6.288-1.796,10.779-8.982,11.677-17.067c1.796-15.27-9.881-32.337-20.66-47.607
		l-2.695-4.491L279.427,252.117z"/>
	<path d="M397.996,432.664H54.866l-2.695-2.695c-16.168-14.372-26.049-31.439-30.54-51.2l0,0
		c-6.288-31.439,22.456-69.165,52.098-102.4c-0.898-0.898-0.898-1.797-1.796-2.695l-0.898-1.797c0-0.898-8.982-18.863-0.898-35.032
		c5.389-10.779,16.168-17.965,33.235-20.66h0.898h0.898c8.982,0.898,16.168,5.389,21.558,11.677
		c1.796,2.695,4.491,4.491,7.186,7.186c26.049-7.186,65.572-5.389,112.281,34.133c0.898,0.898,1.796,1.796,2.695,2.695
		c4.491,3.593,9.881,8.982,17.067,11.677l4.491,1.797l0.898,4.491c4.491,19.761,18.863,43.116,42.218,68.267
		c11.677,12.575,23.354,17.965,31.439,15.27c6.288-1.797,10.779-8.982,11.677-17.067c1.797-15.27-9.881-32.337-20.66-47.607
		l-3.593-4.491l13.474-11.677l61.979,61.979v3.593c0,5.389,0,10.779,0.898,15.27c0.898,6.288,1.797,12.575,1.797,18.863
		c0,12.575-3.593,24.253-10.779,35.032L397.996,432.664z M62.052,414.7h326.961c3.593-6.288,5.389-13.474,5.389-20.66
		c0-5.389-0.898-9.881-1.796-15.27c-0.898-5.389-1.797-10.779-1.797-16.168l-15.27-15.27c0.898,3.593,0.898,8.084,0,12.575
		c-1.797,15.27-10.779,27.846-23.354,32.337c-8.982,2.695-26.947,4.491-50.302-19.761c-25.151-26.049-40.421-50.302-45.811-71.86
		c-8.084-3.593-14.372-9.881-18.863-13.474c-0.898-0.898-1.797-1.797-2.695-1.797c-34.133-29.642-69.165-39.523-99.705-28.744
		l-4.491,1.797l-4.491-5.389c-4.491-4.491-8.982-8.084-12.575-12.575c-1.796-2.695-5.389-4.491-8.982-5.389
		c-9.881,1.797-16.168,5.389-18.863,10.779c-3.593,6.288,0,15.27,0.898,17.965c1.796,2.695,4.491,5.389,6.288,8.084l4.491,6.288
		l-4.491,5.389c-18.863,20.66-58.386,64.674-52.996,92.519l0,0C43.189,390.447,50.375,403.022,62.052,414.7z"/>
	<path d="M459.076,113.787c-2.695,0-5.389-0.898-7.186-3.593c-6.288-8.982-13.474-17.067-21.558-25.151s-16.168-15.27-25.151-21.558
		c-3.593-2.695-4.491-7.186-2.695-10.779c2.695-4.491,5.389-8.982,8.084-11.677c17.067-17.067,45.811-17.067,63.775,0
		c17.067,17.965,17.067,45.811,0,63.775c-3.593,3.593-7.186,6.288-11.677,8.084C461.771,113.787,460.873,113.787,459.076,113.787z
		 M423.146,54.503c7.186,5.389,13.474,11.677,19.761,17.965l0,0c6.288,6.288,12.575,13.474,17.965,19.761l0.898-0.898
		c10.779-10.779,10.779-27.846,0-37.726c-10.779-10.779-27.846-10.779-37.726,0C424.045,54.503,424.045,54.503,423.146,54.503z"/>
	<path d="M411.469,113.787c-2.695,0-4.491-0.898-6.288-2.695c-9.881-9.881-19.761-17.965-31.439-25.151
		c-4.491-2.695-5.389-8.084-2.695-12.575s8.084-5.389,12.575-2.695c12.575,8.084,24.253,17.067,34.133,27.846
		c3.593,3.593,3.593,8.982,0,12.575C416.859,112.889,414.164,113.787,411.469,113.787z"/>
	<path d="M177.027,94.924c-2.695,0-5.389-1.796-7.186-3.593c-2.695-4.491-1.797-9.881,2.695-12.575
		c46.709-33.235,105.993-44.912,158.091-31.439c4.491,0.898,8.084,6.288,6.288,10.779c-0.898,4.491-6.288,8.084-10.779,6.288
		c-47.607-11.677-101.502-0.898-143.719,28.744C180.62,94.026,178.824,94.924,177.027,94.924z"/>
</g>
</svg>